PathFileType  4	(X/Y/Z) C:\Users\HPL 1\Documents/Temp/Sub278498/Files_W_HJCs/
DataRate	CameraRate	NumFrames	NumMarkers	Units	OrigDataRate	OrigDataStartFrame	OrigNumFrames
50.0	50.0	4	42	mm	50.0	29	227
Frame#	Time  	r_knee			r_shank(antsup)			r_ankle			r_calc			r_5meta			r_toe			L_knee			L_shank(ant_sup)			L_ankle			L_calc			L_5meta			L_toe			r_mknee			r_mankle			L_mknee			L_mankle			r_sh2			r_sh3			r_sh4			L_sh2			L_sh3			r_thigh1			r_thigh2			r_thigh3			r_thigh4			r_thigh5			L_thigh1			L_thigh2			L_thigh3			L_thigh4			r.ASIS			r.PSIS			L.ASIS			L.PSIS			C7			R_Shoulder			L_Shoulder			Sternum			R_HJC			L_HJC			R_HJC_reg			L_HJC_reg			
		X1	Y1	Z1	X2	Y2	Z2	X3	Y3	Z3	X4	Y4	Z4	X5	Y5	Z5	X6	Y6	Z6	X7	Y7	Z7	X8	Y8	Z8	X9	Y9	Z9	X10	Y10	Z10	X11	Y11	Z11	X12	Y12	Z12	X13	Y13	Z13	X14	Y14	Z14	X15	Y15	Z15	X16	Y16	Z16	X17	Y17	Z17	X18	Y18	Z18	X19	Y19	Z19	X20	Y20	Z20	X21	Y21	Z21	X22	Y22	Z22	X23	Y23	Z23	X24	Y24	Z24	X25	Y25	Z25	X26	Y26	Z26	X27	Y27	Z27	X28	Y28	Z28	X29	Y29	Z29	X30	Y30	Z30	X31	Y31	Z31	X32	Y32	Z32	X33	Y33	Z33	X34	Y34	Z34	X35	Y35	Z35	X36	Y36	Z36	X37	Y37	Z37	X38	Y38	Z38	X39	Y39	Z39	X40	Y40	Z40	X41	Y41	Z41	X42	Y42	Z42	

29	0.56000	772.56342	578.93311	-409.51886	787.04211	491.91083	-404.66431	734.99249	114.21109	-409.04880	646.41412	71.22353	-452.10477	847.12250	39.41270	-382.31992	886.03931	73.62814	-445.09424	765.78552	573.46252	-732.86926	790.82758	456.10968	-734.01410	705.22699	113.29950	-732.22131	629.68585	73.41935	-681.35547	820.98981	42.50522	-777.88074	868.05377	71.04685	-721.42529	770.23187	558.08008	-535.51398	746.90546	120.73067	-505.24667	783.60791	562.97070	-610.44647	736.69629	120.67643	-642.44324	783.90881	371.80545	-401.45035	712.08356	491.61169	-392.65097	701.82825	375.73282	-385.97195	703.36658	475.98114	-752.71320	691.49115	354.05997	-753.99579	840.34558	899.01251	-393.22354	839.72906	784.11761	-396.37811	793.83832	750.77765	-383.95746	727.34723	892.92822	-382.19937	732.72076	775.93365	-394.16425	853.82104	840.10327	-753.10254	855.33258	701.98914	-744.03650	738.68927	838.61066	-771.83905	743.19904	704.32581	-752.48212	863.18610	1094.87573	-447.40982	674.02881	1126.51599	-540.12042	872.27832	1096.25195	-705.17560	682.35187	1125.41321	-622.56091	721.42651	1608.81287	-588.04797	766.04993	1582.83289	-422.88455	788.61603	1575.78479	-764.24731	864.57471	1536.83398	-580.62988	794.48526	1006.11356	-459.48194	801.83463	1007.54702	-695.72788	789.07704	1018.82178	-490.31222	806.17512	1016.55633	-659.66988
30	0.58000	772.58038	578.91821	-409.55542	787.04895	491.90735	-404.66946	734.98944	114.21068	-409.05634	646.43469	71.21436	-452.06946	847.10712	39.38520	-382.30585	886.06439	73.63229	-445.10214	765.92188	573.43750	-732.85010	790.90778	456.13153	-734.03680	705.29742	113.25308	-732.26733	629.67719	73.32132	-681.40216	821.01324	42.50089	-777.85211	868.06525	71.02801	-721.40881	770.22003	558.03644	-535.50293	746.91632	120.69790	-505.23499	783.58246	562.86877	-610.44177	736.75250	120.74509	-642.42352	783.88275	371.77670	-401.44757	712.07043	491.62039	-392.66681	701.84393	375.72943	-385.98843	703.46118	475.97537	-752.77637	691.43854	354.01529	-753.97662	840.41431	898.98260	-393.25024	839.44867	784.00110	-396.32376	793.95660	750.80377	-383.92932	727.42291	892.96814	-382.11926	732.82581	775.94165	-393.98785	854.04846	840.04651	-753.05463	855.48846	701.96106	-743.97253	738.96436	838.52484	-771.89319	743.33673	704.39661	-752.56140	863.29352	1094.85083	-447.37436	674.14191	1126.54492	-540.10333	872.36273	1096.25439	-705.18066	682.43933	1125.38501	-622.62244	721.43835	1608.82043	-588.14563	765.96118	1582.85791	-422.97617	788.55054	1575.69189	-764.27942	864.53571	1536.85828	-580.71826	794.57215	1006.10560	-459.48565	801.93014	1007.54077	-695.73131	789.15749	1018.89987	-490.20537	806.18982	1016.51889	-659.59449
31	0.60000	772.63385	578.89374	-409.56088	787.07324	491.92621	-404.65710	734.98840	114.21748	-409.05511	646.44751	71.20565	-452.07520	847.10852	39.38484	-382.31805	886.06647	73.64998	-445.10437	766.04510	573.43066	-732.83826	791.02979	456.09235	-734.00812	705.26575	113.30238	-732.24780	629.68884	73.42085	-681.39050	820.99542	42.46812	-777.86383	868.06531	71.04553	-721.43604	770.26147	558.06165	-535.49725	746.90704	120.72379	-505.27066	783.75439	562.95001	-610.44843	736.63019	120.75410	-642.32971	783.89575	371.79352	-401.44077	712.13354	491.60529	-392.66681	701.83783	375.73459	-385.99182	703.55023	475.98151	-752.72760	691.54077	354.18048	-753.94080	840.45343	898.92242	-393.25134	839.62848	784.04913	-396.36911	794.05139	750.75476	-383.91550	727.48126	892.95209	-382.10333	732.90802	775.91040	-393.99728	854.25568	840.05267	-753.00275	855.69800	701.91779	-743.90051	739.24744	838.55725	-771.89740	743.52618	704.38574	-752.62323	863.34985	1094.84143	-447.44244	674.22369	1126.54736	-540.19989	872.44354	1096.20618	-705.18933	682.50610	1125.41931	-622.68750	721.46417	1608.81738	-588.18268	765.86365	1582.84583	-423.09085	788.48407	1575.57471	-764.37854	864.42096	1536.81311	-580.76801	794.60079	1006.10703	-459.53170	801.99282	1007.51675	-695.77645	789.24895	1018.84962	-490.28035	806.25342	1016.53364	-659.63421
32	0.62000	772.71887	578.88843	-409.54993	787.13666	491.93616	-404.66180	735.00616	114.23407	-409.03897	646.43225	71.27556	-452.11490	847.10461	39.43289	-382.29361	886.06976	73.65575	-445.11862	766.22614	573.47528	-732.82025	791.16687	456.08807	-733.99365	705.24268	113.35275	-732.21002	629.69611	73.44608	-681.36865	821.00580	42.51403	-777.88953	868.06171	71.05149	-721.43298	770.40753	558.06500	-535.46313	746.92816	120.76059	-505.27936	783.76953	562.86487	-610.43188	736.74646	120.79261	-642.36804	783.99377	371.78552	-401.43808	712.24933	491.60974	-392.67038	701.95544	375.75232	-385.98203	703.66370	476.00674	-752.74792	691.70209	354.09482	-754.04645	840.66443	898.97559	-393.25034	839.72253	783.99329	-396.33127	794.10870	750.78333	-383.84579	727.63013	892.93152	-382.10565	733.05469	775.94934	-393.94614	854.43988	840.08258	-752.89813	855.91858	701.95862	-743.82751	739.13409	838.67285	-771.80725	743.74310	704.39343	-752.70331	863.52478	1094.85522	-447.42645	674.32990	1126.54858	-540.14941	872.51880	1096.20325	-705.13232	682.67761	1125.44739	-622.60663	721.42389	1608.87256	-588.30725	765.73273	1582.85803	-423.22086	788.36713	1575.58606	-764.48779	864.32520	1536.77808	-580.90417	794.75240	1006.12001	-459.48157	802.09405	1007.52112	-695.72795	789.33530	1018.81727	-490.34455	806.47585	1016.55617	-659.65587
